<svg xmlns="http://www.w3.org/2000/svg" viewBox="0 0 100 100" width="100" height="100">
    <!-- Sun -->
    <circle cx="50" cy="40" r="20" fill="#FFCC33" />
    <g stroke="#FFCC33" stroke-width="3">
        <line x1="50" y1="10" x2="50" y2="20" />
        <line x1="50" y1="60" x2="50" y2="70" />
        <line x1="20" y1="40" x2="30" y2="40" />
        <line x1="70" y1="40" x2="80" y2="40" />
        <line x1="30" y1="20" x2="37" y2="27" />
        <line x1="63" y1="53" x2="70" y2="60" />
        <line x1="30" y1="60" x2="37" y2="53" />
        <line x1="63" y1="27" x2="70" y2="20" />
    </g>

    <!-- Cloud -->
    <path
        d="M75,55 C85,55 85,65 75,65 L35,65 C25,65 25,55 35,55 C35,45 45,45 50,50 C50,40 65,40 65,50 C65,45 75,45 75,55 Z"
        fill="white" stroke="#B0C4DE" stroke-width="2" />
</svg>